<?xml version="1.0"?>
<svg xmlns="http://www.w3.org/2000/svg" viewBox="0 0 64 64" width="512" height="512"><path d="m39 61 6-10h-12z" fill="#d3ac5c"/><path d="m57.95 56.67.638 4.33-3.675-2.105-3.741 1.973.778-4.305-2.95-3.111 4.156-.557 1.918-3.895 1.79 3.961 4.136.704z" fill="#db735c"/><path d="m19.75736 50.75736h8.48528v8.48528h-8.48528z" fill="#5eb8ab" transform="matrix(.70710678 -.70710678 .70710678 .70710678 -31.86144 33.07969)"/><path d="m13 58v-6l-5-3-5 3v6l5 3z" fill="#60a867"/><path d="m48 28-6 9h12z" fill="#60a867"/><path d="m13 28h8v8h-8z" fill="#d3ac5c"/><circle cx="32" cy="8" fill="#db735c" r="5"/><path d="m2.48535 58.85742 5 3a1.00012 1.00012 0 0 0 1.0293 0l5-3a1.00083 1.00083 0 0 0 .48535-.85742v-6a1.00083 1.00083 0 0 0 -.48535-.85742l-4.08478-2.45087 7.46368-10.78058 5.873 10.90821-5.47355 5.47366a.99962.99962 0 0 0 0 1.41406l6 6a.99963.99963 0 0 0 1.41406 0l6-6a.99962.99962 0 0 0 0-1.41406l-5.89506-5.89511-6.13738-11.39789h2.32538a.99974.99974 0 0 0 1-1v-8a.99974.99974 0 0 0 -1-1h-1.58594l12.6084-12.6084 14.67578 13.7584-5.53024 8.29531a.99992.99992 0 0 0 .832 1.55469h4.16882l-7.71429 12h-5.45453a1.00009 1.00009 0 0 0 -.85742 1.51465l6 10a1 1 0 0 0 1.71484 0l6-10a1.00009 1.00009 0 0 0 -.85742-1.51465h-4.16876l7.12776-11.08643 5.91132 10.1352-1.385 2.92779-3.61816.48389a.99963.99963 0 0 0 -.59278 1.6792l2.60162 2.74365-.68849 3.80713a1.00069 1.00069 0 0 0 1.45118 1.0625l3.25488-1.71631 3.19727 1.83106a.99987.99987 0 0 0 1.48633-1.01319l-.56348-3.82861 2.68848-2.64844a1.00021 1.00021 0 0 0 -.53417-1.69824l-3.62112-.6162-1.64161-3.48877c-.01281-.02716-.03357-.0481-.04858-.07367l.00757-.00446-6.12274-10.4961h4.25848a.99992.99992 0 0 0 .832-1.55469l-6-9a.83883.83883 0 0 0 -.173-.14862l.02453-.02618-14.57208-13.66138a6.00024 6.00024 0 1 0 -4.15832.02368l-13.36719 13.36719h-3.58594a.99974.99974 0 0 0 -1 1v8a.99974.99974 0 0 0 1 1h2.09125l-7.791 11.2536-4.81494 2.889a1.00083 1.00083 0 0 0 -.48531.8574v6a1.00083 1.00083 0 0 0 .48535.85742zm36.51465.19873-4.2334-7.05615h8.4668zm16.959-5.66894a1.00127 1.00127 0 0 0 .73731.56006l2.21094.376-1.6592 1.63373a.99988.99988 0 0 0 -.28711.85791l.33789 2.29444-1.88867-1.08155a1.0014 1.0014 0 0 0 -.96387-.01709l-1.92481 1.01563.41309-2.28565a1.001 1.001 0 0 0 -.25879-.86572l-1.60351-1.69189 2.21679-.29639a1.00065 1.00065 0 0 0 .77149-.56348l.93652-1.98047zm-3.82716-17.38721h-8.26368l4.13184-6.19727zm-24.13184-28a4 4 0 1 1 4 4 4.00427 4.00427 0 0 1 -4-4zm-14 21h6v6h-6zm10 30.58594-4.58594-4.58594 4.58594-4.58594 4.58594 4.58594zm-20-7.01953 4-2.40041 4 2.40039v4.86718l-4 2.40043-4-2.40041z"/></svg>
