<svg id="Layer_35" enable-background="new 0 0 64 64" height="512" viewBox="0 0 64 64" width="512" xmlns="http://www.w3.org/2000/svg"><path d="m61 22h-20c-.552 0-1-.448-1-1v-18c0-.552.448-1 1-1h20c.552 0 1 .448 1 1v18c0 .552-.448 1-1 1z" fill="#b4dd7f"/><path d="m23 22h-20c-.552 0-1-.448-1-1v-18c0-.552.448-1 1-1h20c.552 0 1 .448 1 1v18c0 .552-.448 1-1 1z" fill="#b4dd7f"/><path d="m20 21v1h-7-7v-1c0-1.94.78-3.68 2.05-4.95s3.01-2.05 4.95-2.05c3.87 0 7 3.13 7 7z" fill="#ff826e"/><path d="m58 21v1h-7-7v-1c0-1.94.78-3.68 2.05-4.95s3.01-2.05 4.95-2.05c3.87 0 7 3.13 7 7z" fill="#ff826e"/><circle cx="13" cy="10" fill="#f0d0b4" r="4"/><circle cx="51" cy="10" fill="#f0d0b4" r="4"/><g fill="#fcd770"><path d="m10 38v3h-8v-6h8z"/><path d="m36 19v6h-4-4v-6z"/><path d="m62 35v6h-8v-3-3z"/></g><path d="m13.05 52c-.03-.33-.05-.66-.05-1 0-4.97 4.03-9 9-9 1.48 0 2.87.36 4.1 1 1.9-4.13 6.06-7 10.9-7 1.4 0 2.75.24 4 .68 4.66 1.65 8 6.09 8 11.32 3.87 0 7 3.13 7 7s-3.13 7-7 7h-36c-2.76 0-5-2.24-5-5s2.24-5 5-5z" fill="#e6e9ed"/><circle cx="24" cy="54" fill="#fcd770" r="2"/><circle cx="32" cy="54" fill="#fcd770" r="2"/><circle cx="40" cy="54" fill="#fcd770" r="2"/><path d="m43 28h6c1.654 0 3-1.346 3-3v-2h8c1.654 0 3-1.346 3-3v-16c0-1.654-1.346-3-3-3h-18c-1.654 0-3 1.346-3 3v16c0 1.654 1.346 3 3 3h8v2c0 .552-.448 1-1 1h-6c-1.654 0-3 1.346-3 3v1h-6c-.552 0-1-.448-1-1v-3h4v-8h-10v8h4v3c0 1.654 1.346 3 3 3h6v3.363c-.965-.229-1.966-.363-3-.363-4.722 0-9.076 2.597-11.355 6.691-.851-.337-1.736-.549-2.645-.639v-11.052c0-1.654-1.346-3-3-3h-5c-.552 0-1-.448-1-1v-3h8c1.654 0 3-1.346 3-3v-16c0-1.654-1.346-3-3-3h-18c-1.654 0-3 1.346-3 3v16c0 1.654 1.346 3 3 3h8v3c0 1.654 1.346 3 3 3h5c.552 0 1 .448 1 1v3h-3c-1.654 0-3 1.346-3 3 0 .552-.448 1-1 1h-3v-3h-10v8h10v-3h3c1.654 0 3-1.346 3-3 0-.552.448-1 1-1h3v6.051c-5.046.504-9 4.773-9 9.949 0 .03.005.059.005.09-2.836.476-5.005 2.941-5.005 5.91 0 3.309 2.691 6 6 6h36c4.411 0 8-3.589 8-8 0-4.088-3.084-7.465-7.048-7.938-.359-4.99-3.535-9.211-7.952-11.059v-2.003h6c.552 0 1 .448 1 1v1c0 1.654 1.346 3 3 3h1v3h10v-8h-10v3h-1c-.552 0-1-.448-1-1v-1c0-1.654-1.346-3-3-3h-6v-3c0-.552.448-1 1-1zm-2-8v-16c0-.552.448-1 1-1h18c.552 0 1 .448 1 1v16c0 .552-.448 1-1 1h-1c0-3.232-1.93-6.016-4.695-7.277 1.031-.917 1.695-2.238 1.695-3.723 0-2.757-2.243-5-5-5s-5 2.243-5 5c0 1.485.664 2.806 1.695 3.723-2.765 1.261-4.695 4.045-4.695 7.277h-1c-.552 0-1-.448-1-1zm7-10c0-1.654 1.346-3 3-3s3 1.346 3 3-1.346 3-3 3-3-1.346-3-3zm3 5c3.309 0 6 2.691 6 6h-12c0-3.309 2.691-6 6-6zm-22 5h6v4h-6zm-26 0v-16c0-.552.448-1 1-1h18c.552 0 1 .448 1 1v16c0 .552-.448 1-1 1h-1c0-3.232-1.93-6.016-4.695-7.277 1.031-.917 1.695-2.238 1.695-3.723 0-2.757-2.243-5-5-5s-5 2.243-5 5c0 1.485.664 2.806 1.695 3.723-2.765 1.261-4.695 4.045-4.695 7.277h-1c-.552 0-1-.448-1-1zm7-10c0-1.654 1.346-3 3-3s3 1.346 3 3-1.346 3-3 3-3-1.346-3-3zm3 5c3.309 0 6 2.691 6 6h-12c0-3.309 2.691-6 6-6zm-4 25h-6v-4h6zm38.953 7.076c-1.711.223-3.3.983-4.552 2.21l1.4 1.428c1.129-1.106 2.62-1.714 4.199-1.714 3.309 0 6 2.691 6 6s-2.691 6-6 6h-36c-2.206 0-4-1.794-4-4s1.794-4 4-4 4 1.794 4 4h2c0-2.965-2.164-5.429-4.995-5.909 0-.031-.005-.06-.005-.091 0-4.411 3.589-8 8-8 1.276 0 2.503.298 3.646.886l.929.478.437-.949c1.792-3.897 5.713-6.415 9.988-6.415 5.754 0 10.482 4.442 10.953 10.076zm7.047-11.076h6v4h-6z"/><path d="m32 51c-1.654 0-3 1.346-3 3s1.346 3 3 3 3-1.346 3-3-1.346-3-3-3zm0 4c-.552 0-1-.448-1-1s.448-1 1-1 1 .448 1 1-.448 1-1 1z"/><path d="m24 51c-1.654 0-3 1.346-3 3s1.346 3 3 3 3-1.346 3-3-1.346-3-3-3zm0 4c-.552 0-1-.448-1-1s.448-1 1-1 1 .448 1 1-.448 1-1 1z"/><path d="m40 51c-1.654 0-3 1.346-3 3s1.346 3 3 3 3-1.346 3-3-1.346-3-3-3zm0 4c-.552 0-1-.448-1-1s.448-1 1-1 1 .448 1 1-.448 1-1 1z"/><path d="m37 41c3.196 0 5.984 2.158 6.779 5.249l1.938-.498c-1.024-3.975-4.608-6.751-8.717-6.751z"/></svg>