<svg id="Capa_1" enable-background="new 0 0 512 512" height="512" viewBox="0 0 512 512" width="512" xmlns="http://www.w3.org/2000/svg"><g><path d="m390.668 30h30.332v-30h-330v30h27.796c4.69 109.956 59.045 170.604 114.75 226.691-55.472 55.852-109.603 116.226-114.688 225.309h-27.858v30h330v-30h-30.394c-5.085-109.083-59.216-169.457-114.687-225.309 55.705-56.087 110.059-116.735 114.749-226.691zm-135.935 205.452c-18.379-18.505-36.134-37.039-51.701-57.399 22.56-2.993 39.796-7.299 56.606-11.501 19.079-4.77 37.365-9.339 63.167-12.049-18.821 30.133-42.863 55.566-68.072 80.949zm105.904-205.452c-1.703 36.331-9.375 66.604-21.083 93.039-39.039 2.377-63.494 8.484-87.192 14.409-20.39 5.098-39.768 9.94-68.44 12.563-19.461-32.556-32.784-70.696-35.095-120.011zm-162.316 452 46.214-54.672c2.861-3.386 7.04-5.328 11.465-5.328s8.604 1.942 11.466 5.328l46.213 54.672zm154.641 0-62.584-74.039c-8.574-10.143-21.105-15.961-34.378-15.961s-25.804 5.818-34.378 15.961l-62.584 74.039h-10.149c4.976-97.091 52.828-150.688 105.844-204.07 53.015 53.381 100.867 106.979 105.842 204.07z"/><path d="m241 332h30v30h-30z"/></g></svg>